<svg xmlns="http://www.w3.org/2000/svg" viewBox="0 0 24 24" fill="none" stroke-width="2" stroke-linecap="round" stroke-linejoin="round">
  <style>
    path {
      stroke: #ab5c3c; /* Terracotta for Light Mode */
    }
    @media (prefers-color-scheme: dark) {
      path {
        stroke: #f59e0b; /* Amber Gold for Dark Mode */
      }
    }
  </style>
  <path d="M20 9V6a2 2 0 0 0-2-2H6a2 2 0 0 0-2 2v3" />
  <path d="M2 11a2 2 0 0 1 2-2h16a2 2 0 0 1 2 2v5a2 2 0 0 1-2 2H4a2 2 0 0 1-2-2v-5Z" />
  <path d="M4 18v2" />
  <path d="M20 18v2" />
  <path d="M12 4v5" />
</svg>
